<mxfile host="app.diagrams.net" modified="2024-03-27T13:43:29.368Z" agent="Mozilla/5.0 (Macintosh; Intel Mac OS X 10_15_7) AppleWebKit/537.36 (KHTML, like Gecko) Chrome/122.0.0.0 Safari/537.36" etag="Ywj9y3VwEGEYwp6Zby0o" version="24.0.7" type="google">
  <diagram name="Page-1" id="LpnMPeeYcpVM6UpST8w-">
    <mxGraphModel grid="1" page="1" gridSize="10" guides="1" tooltips="1" connect="1" arrows="1" fold="1" pageScale="1" pageWidth="850" pageHeight="1100" math="0" shadow="0">
      <root>
        <mxCell id="0" />
        <mxCell id="1" parent="0" />
        <mxCell id="ZR1fj0wZnWFyJDHbyP2q-1" value="Tinder microservices" style="text;html=1;align=center;verticalAlign=middle;whiteSpace=wrap;rounded=0;fontSize=30;" vertex="1" parent="1">
          <mxGeometry x="290" y="20" width="360" height="30" as="geometry" />
        </mxCell>
        <mxCell id="ZR1fj0wZnWFyJDHbyP2q-2" value="&lt;font style=&quot;font-size: 15px;&quot;&gt;Entities&lt;/font&gt;" style="text;html=1;align=center;verticalAlign=middle;whiteSpace=wrap;rounded=0;" vertex="1" parent="1">
          <mxGeometry x="20" y="70" width="60" height="30" as="geometry" />
        </mxCell>
        <mxCell id="ZR1fj0wZnWFyJDHbyP2q-3" value="Profiles&lt;div&gt;Matches&lt;/div&gt;&lt;div&gt;Chats&lt;/div&gt;" style="text;strokeColor=none;fillColor=none;align=left;verticalAlign=middle;spacingLeft=4;spacingRight=4;overflow=hidden;points=[[0,0.5],[1,0.5]];portConstraint=eastwest;rotatable=0;whiteSpace=wrap;html=1;" vertex="1" parent="1">
          <mxGeometry x="30" y="100" width="80" height="70" as="geometry" />
        </mxCell>
        <mxCell id="ZR1fj0wZnWFyJDHbyP2q-4" value="Mobile app&lt;div&gt;user 1&lt;/div&gt;" style="rounded=1;whiteSpace=wrap;html=1;absoluteArcSize=1;arcSize=14;strokeWidth=2;" vertex="1" parent="1">
          <mxGeometry x="120" y="100" width="100" height="190" as="geometry" />
        </mxCell>
        <mxCell id="ZR1fj0wZnWFyJDHbyP2q-5" value="Profile DB&amp;nbsp;" style="strokeWidth=2;html=1;shape=mxgraph.flowchart.database;whiteSpace=wrap;" vertex="1" parent="1">
          <mxGeometry x="780" y="120" width="120" height="90" as="geometry" />
        </mxCell>
        <mxCell id="ZR1fj0wZnWFyJDHbyP2q-7" value="Gateway Service" style="rounded=0;whiteSpace=wrap;html=1;" vertex="1" parent="1">
          <mxGeometry x="390" y="80" width="60" height="470" as="geometry" />
        </mxCell>
        <mxCell id="ZR1fj0wZnWFyJDHbyP2q-11" value="" style="endArrow=classic;startArrow=classic;html=1;rounded=0;exitX=1;exitY=0.424;exitDx=0;exitDy=0;exitPerimeter=0;" edge="1" parent="1" source="ZR1fj0wZnWFyJDHbyP2q-4">
          <mxGeometry width="50" height="50" relative="1" as="geometry">
            <mxPoint x="270" y="200" as="sourcePoint" />
            <mxPoint x="380" y="181" as="targetPoint" />
          </mxGeometry>
        </mxCell>
        <mxCell id="ZR1fj0wZnWFyJDHbyP2q-13" value="Profile Service" style="rounded=0;whiteSpace=wrap;html=1;" vertex="1" parent="1">
          <mxGeometry x="560" y="120" width="120" height="60" as="geometry" />
        </mxCell>
        <mxCell id="ZR1fj0wZnWFyJDHbyP2q-15" value="Image Service" style="rounded=0;whiteSpace=wrap;html=1;" vertex="1" parent="1">
          <mxGeometry x="560" y="260" width="120" height="60" as="geometry" />
        </mxCell>
        <mxCell id="ZR1fj0wZnWFyJDHbyP2q-16" value="S3" style="shape=cylinder3;whiteSpace=wrap;html=1;boundedLbl=1;backgroundOutline=1;size=15;" vertex="1" parent="1">
          <mxGeometry x="770" y="245" width="120" height="100" as="geometry" />
        </mxCell>
        <mxCell id="ZR1fj0wZnWFyJDHbyP2q-18" value="" style="endArrow=classic;startArrow=classic;html=1;rounded=0;" edge="1" parent="1">
          <mxGeometry width="50" height="50" relative="1" as="geometry">
            <mxPoint x="461" y="294" as="sourcePoint" />
            <mxPoint x="551" y="294" as="targetPoint" />
          </mxGeometry>
        </mxCell>
        <mxCell id="ZR1fj0wZnWFyJDHbyP2q-19" value="" style="endArrow=classic;startArrow=classic;html=1;rounded=0;" edge="1" parent="1">
          <mxGeometry width="50" height="50" relative="1" as="geometry">
            <mxPoint x="690" y="294.5" as="sourcePoint" />
            <mxPoint x="760" y="294.5" as="targetPoint" />
          </mxGeometry>
        </mxCell>
        <mxCell id="ZR1fj0wZnWFyJDHbyP2q-21" value="Mobile app&lt;div&gt;user 2&lt;/div&gt;" style="rounded=1;whiteSpace=wrap;html=1;absoluteArcSize=1;arcSize=14;strokeWidth=2;" vertex="1" parent="1">
          <mxGeometry x="120" y="320" width="100" height="190" as="geometry" />
        </mxCell>
        <mxCell id="ZR1fj0wZnWFyJDHbyP2q-22" value="" style="endArrow=classic;startArrow=classic;html=1;rounded=0;exitX=1;exitY=0.424;exitDx=0;exitDy=0;exitPerimeter=0;" edge="1" parent="1">
          <mxGeometry width="50" height="50" relative="1" as="geometry">
            <mxPoint x="220" y="390" as="sourcePoint" />
            <mxPoint x="380" y="390" as="targetPoint" />
          </mxGeometry>
        </mxCell>
        <mxCell id="ZR1fj0wZnWFyJDHbyP2q-23" value="Matcher Service&lt;div&gt;(chats)&lt;/div&gt;" style="rounded=0;whiteSpace=wrap;html=1;" vertex="1" parent="1">
          <mxGeometry x="560" y="510" width="120" height="60" as="geometry" />
        </mxCell>
        <mxCell id="ZR1fj0wZnWFyJDHbyP2q-24" value="Chats DB" style="shape=cylinder3;whiteSpace=wrap;html=1;boundedLbl=1;backgroundOutline=1;size=15;" vertex="1" parent="1">
          <mxGeometry x="770" y="490" width="120" height="100" as="geometry" />
        </mxCell>
        <mxCell id="ZR1fj0wZnWFyJDHbyP2q-25" value="" style="endArrow=classic;startArrow=classic;html=1;rounded=0;" edge="1" parent="1">
          <mxGeometry width="50" height="50" relative="1" as="geometry">
            <mxPoint x="690" y="539.5" as="sourcePoint" />
            <mxPoint x="760" y="539.5" as="targetPoint" />
          </mxGeometry>
        </mxCell>
        <mxCell id="ZR1fj0wZnWFyJDHbyP2q-26" value="" style="endArrow=classic;startArrow=classic;html=1;rounded=0;" edge="1" parent="1">
          <mxGeometry width="50" height="50" relative="1" as="geometry">
            <mxPoint x="690" y="160" as="sourcePoint" />
            <mxPoint x="760" y="160" as="targetPoint" />
          </mxGeometry>
        </mxCell>
        <mxCell id="ZR1fj0wZnWFyJDHbyP2q-27" value="" style="endArrow=classic;startArrow=classic;html=1;rounded=0;" edge="1" parent="1">
          <mxGeometry width="50" height="50" relative="1" as="geometry">
            <mxPoint x="460" y="540" as="sourcePoint" />
            <mxPoint x="550" y="540" as="targetPoint" />
          </mxGeometry>
        </mxCell>
        <mxCell id="ZR1fj0wZnWFyJDHbyP2q-28" value="" style="endArrow=classic;startArrow=classic;html=1;rounded=0;" edge="1" parent="1">
          <mxGeometry width="50" height="50" relative="1" as="geometry">
            <mxPoint x="460" y="150" as="sourcePoint" />
            <mxPoint x="550" y="150" as="targetPoint" />
          </mxGeometry>
        </mxCell>
        <mxCell id="ZR1fj0wZnWFyJDHbyP2q-30" value="Recommandation Service" style="rounded=0;whiteSpace=wrap;html=1;" vertex="1" parent="1">
          <mxGeometry x="560" y="365" width="120" height="60" as="geometry" />
        </mxCell>
        <mxCell id="ZR1fj0wZnWFyJDHbyP2q-32" value="Locations DB&lt;div&gt;&lt;br&gt;&lt;/div&gt;" style="shape=cylinder3;whiteSpace=wrap;html=1;boundedLbl=1;backgroundOutline=1;size=15;" vertex="1" parent="1">
          <mxGeometry x="760" y="365" width="120" height="100" as="geometry" />
        </mxCell>
        <mxCell id="ZR1fj0wZnWFyJDHbyP2q-34" value="Locations stores the user id and a location which is updated every 15 mins so that one can get possible match recomandations based on location&amp;nbsp;" style="shape=note;size=20;whiteSpace=wrap;html=1;" vertex="1" parent="1">
          <mxGeometry x="920" y="340" width="100" height="170" as="geometry" />
        </mxCell>
        <mxCell id="ZR1fj0wZnWFyJDHbyP2q-35" value="" style="endArrow=classic;startArrow=classic;html=1;rounded=0;" edge="1" parent="1">
          <mxGeometry width="50" height="50" relative="1" as="geometry">
            <mxPoint x="690" y="394.5" as="sourcePoint" />
            <mxPoint x="760" y="394.5" as="targetPoint" />
          </mxGeometry>
        </mxCell>
        <mxCell id="ZR1fj0wZnWFyJDHbyP2q-36" value="" style="endArrow=classic;startArrow=classic;html=1;rounded=0;" edge="1" parent="1">
          <mxGeometry width="50" height="50" relative="1" as="geometry">
            <mxPoint x="460" y="390" as="sourcePoint" />
            <mxPoint x="550" y="390" as="targetPoint" />
          </mxGeometry>
        </mxCell>
      </root>
    </mxGraphModel>
  </diagram>
</mxfile>
